Coordinates																	
version=1																	
nRows=30																	
nColumns=18																	
inDegrees=yes																	
endheader																	
time	ground_thorax_rot_x	ground_thorax_rot_y	ground_thorax_rot_z	ground_thorax_tx	ground_thorax_ty	ground_thorax_tz	clav_prot	clav_elev	scapula_abduction	scapula_elevation	scapula_upward_rot	scapula_winging	plane_elv	shoulder_elv	axial_rot	elbow_flexion	pro_sup
0	1.52982689	-6.92898762	-11.2672721	0	0	0	-17.56109926	-6.21985767	-5.29494798	-4.27701323	9.46556852	6.29241748	-18.81495345	17.94477725	41.36498876	0	34.32
0.01	1.42472643	-6.95790229	-11.26751494	0	0	0	-17.47945427	-6.38591956	-5.1938627	-4.36256979	9.32431832	6.3664854	-18.9025876	18.111744	40.90397474	0	34.32
0.02	1.61168173	-6.9298915	-11.22804889	0	0	0	-17.53399133	-6.16727779	-5.21632378	-4.25636838	9.54370534	6.2501268	-19.21569681	17.96513439	42.20823697	0	34.32
0.03	1.54143714	-6.92621278	-11.21472968	0	0	0	-17.52788118	-6.22905721	-5.2445054	-4.27755687	9.44788948	6.29312432	-18.9336337	18.20665866	39.83477147	0	34.32
0.04	1.67972345	-6.98397891	-11.19650241	0	0	0	-17.50981778	-6.03445267	-5.13231137	-4.18757612	9.67233076	6.16939055	-19.45057953	17.72520949	44.75964941	0	34.32
0.05	1.66554281	-6.783213	-11.37571184	0	0	0	-17.73234001	-6.21597718	-5.60242087	-4.279334	9.45205831	6.32852922	-17.71670658	18.67930137	34.87362324	0	34.32
0.06	1.52400058	-6.97595461	-11.24774098	0	0	0	-17.49246624	-6.3262074	-5.20910187	-4.32713329	9.36127035	6.34000926	-18.37077792	18.65772899	35.42905978	0	34.32
0.07	1.50464969	-6.95534143	-11.30537216	0	0	0	-17.53551765	-6.38426592	-5.23470106	-4.39370131	9.43127903	6.3515514	-18.7787541	18.56758387	36.04011356	0	34.32
0.08	1.62226762	-7.01817056	-11.23968842	0	0	0	-17.52198248	-6.16624941	-5.14847346	-4.27887862	9.63080485	6.22622898	-19.42924717	17.73891272	44.84327877	0	34.32
0.09	1.6031865	-7.11475535	-11.26730817	0	0	0	-17.40110133	-6.22477463	-4.92024928	-4.32011736	9.63907346	6.21905036	-19.20383915	17.98809716	41.82475409	0	34.32
0.1	1.59289863	-7.1258049	-11.28927679	0	0	0	-17.40308386	-6.21153925	-4.93174775	-4.30740974	9.62963728	6.21749379	-19.19981072	17.99878513	41.83025666	0	34.32
0.11	1.4507908	-7.15219223	-11.32021949	0	0	0	-17.29189667	-6.48834855	-4.9417188	-4.38248219	9.14417026	6.40629082	-17.83544876	19.19683984	31.96569757	0	34.32
0.12	1.63291559	-6.98729905	-11.2207247	0	0	0	-17.55645201	-6.13654767	-5.22385229	-4.253183	9.61439967	6.22716652	-19.39371343	17.78986963	44.43004022	0	34.32
0.13	1.59295771	-6.91018034	-11.24033409	0	0	0	-17.62464584	-6.185437	-5.37470715	-4.2733302	9.53691598	6.27608037	-19.23049304	17.76557369	44.6056421	0	34.32
0.14	1.61982547	-6.95147221	-11.22844536	0	0	0	-17.58096827	-6.12246729	-5.28454787	-4.23598627	9.58686792	6.23404976	-19.30116575	17.70337736	44.91997257	0	34.32
0.15	1.42098167	-6.93693734	-11.28073832	0	0	0	-17.53739384	-6.46663841	-5.37627174	-4.378028	9.14226729	6.45001861	-18.15509061	18.9460871	32.82162289	0	34.32
0.16	1.45460612	-6.8252071	-11.25810052	0	0	0	-17.64956335	-6.37727154	-5.50597984	-4.35820061	9.30020759	6.40377993	-18.53542737	18.71018334	34.32545077	0	34.32
0.17	1.60937748	-6.88753331	-11.22907666	0	0	0	-17.6476473	-6.15469084	-5.40308193	-4.2600414	9.57079823	6.26211667	-19.33192317	17.68897619	44.96964509	0	34.32
0.18	1.85690492	-6.89161216	-11.29322648	0	0	0	-17.66634307	-5.98444013	-5.38765971	-4.17174383	9.72577087	6.17094915	-18.22467793	18.43087119	36.62066956	0	34.32
0.19	1.49111077	-6.94297326	-11.26085366	0	0	0	-17.59076069	-6.33540456	-5.36450497	-4.34687589	9.38823764	6.35640081	-18.78465934	18.42632799	37.3652044	0	34.32
0.2	1.51898668	-6.9293674	-11.36995003	0	0	0	-17.63800307	-6.3800439	-5.38029781	-4.41348328	9.49527995	6.35519732	-18.71533663	18.41573851	36.87926519	0	34.32
0.21	1.62388712	-6.95249984	-11.2651556	0	0	0	-17.5691613	-6.26795085	-5.35606086	-4.28556908	9.35967904	6.33596166	-18.62582405	18.59759695	37.51822275	0	34.32
0.22	1.55203031	-6.87826205	-11.28222759	0	0	0	-17.67030459	-6.26809293	-5.48519309	-4.31534722	9.4480788	6.33460441	-18.63449278	18.34152269	37.32074648	0	34.32
0.23	1.47766285	-7.17118963	-11.14052763	0	0	0	-17.27746284	-6.30919751	-4.9252591	-4.2571358	9.19617769	6.32955045	-18.61108709	18.74273695	36.24964245	0	34.32
0.24	1.61569209	-7.25191846	-11.22182937	0	0	0	-17.26436487	-6.20836582	-4.89102383	-4.19487084	9.25623983	6.27843327	-17.78502822	19.02446866	33.50808578	0	34.32
0.25	1.68941261	-6.93306126	-11.45060366	0	0	0	-17.62196588	-6.2664047	-5.32177279	-4.35202294	9.59534836	6.28914824	-18.19078396	18.65288572	34.47499112	0	34.32
0.26	1.58717672	-7.03410444	-11.24720791	0	0	0	-17.47523408	-6.25896926	-5.23062299	-4.25470713	9.29094836	6.33054018	-18.04693281	18.77794232	34.94600864	0	34.32
0.27	1.48569347	-7.00592625	-11.27341888	0	0	0	-17.46330858	-6.37507877	-5.14734744	-4.36383731	9.36251329	6.35029431	-18.75693077	18.67532293	35.85597838	0	34.32
0.28	1.51776021	-7.03745822	-11.32199056	0	0	0	-17.48930498	-6.38413517	-5.19285716	-4.37125789	9.35901965	6.35973772	-18.27602853	18.80987931	35.01563914	0	34.32
0.29	1.53369766	-7.17429646	-11.32424038	0	0	0	-17.35592034	-6.42532245	-4.92870851	-4.40767622	9.40057253	6.33560965	-18.5829619	18.73844401	35.8369654	0	34.32
